<svg width="512" height="512" viewBox="0 0 512 512" fill="none" xmlns="http://www.w3.org/2000/svg">
<path d="M382.314 32.1068C382.307 40.5909 378.931 48.7247 372.928 54.7201L209.258 218.389C204.305 223.342 200.375 229.222 197.694 235.694C195.013 242.165 193.633 249.102 193.633 256.107C193.633 263.112 195.013 270.048 197.694 276.52C200.375 282.991 204.305 288.872 209.258 293.824L372.715 457.28C378.544 463.315 381.769 471.399 381.696 479.789C381.623 488.179 378.258 496.205 372.325 502.138C366.392 508.071 358.366 511.437 349.975 511.51C341.585 511.583 333.502 508.357 327.466 502.528L164.01 339.2C142.032 317.179 129.688 287.337 129.688 256.224C129.688 225.111 142.032 195.27 164.01 173.248L327.68 9.47214C332.155 4.99393 337.858 1.94389 344.068 0.707964C350.277 -0.527963 356.713 0.105768 362.562 2.52897C368.411 4.95217 373.41 9.05592 376.926 14.321C380.442 19.586 382.317 25.7757 382.314 32.1068V32.1068Z" fill="#67734B"/>
</svg>
