<svg width="512" height="512" viewBox="0 0 512 512" fill="none" xmlns="http://www.w3.org/2000/svg">
<path d="M301.246 256L502.624 54.643C515.125 42.1425 515.125 21.8753 502.624 9.37585C490.124 -3.12463 469.857 -3.12463 457.357 9.37585L256 210.754L54.6428 9.37585C42.1423 -3.12463 21.8751 -3.12463 9.37561 9.37585C-3.12388 21.8763 -3.12488 42.1435 9.37561 54.643L210.753 256L9.37561 457.357C-3.12488 469.858 -3.12488 490.125 9.37561 502.625C21.8761 515.124 42.1433 515.125 54.6428 502.625L256 301.246L457.356 502.625C469.857 515.125 490.124 515.125 502.623 502.625C515.124 490.124 515.124 469.857 502.623 457.357L301.246 256Z" fill="#67734B"/>
</svg>
