<svg width="512" height="512" viewBox="0 0 512 512" fill="none" xmlns="http://www.w3.org/2000/svg">
<path d="M405.333 21H106.667C78.3873 21.0339 51.2759 32.2828 31.2794 52.2794C11.2828 72.2759 0.0338743 99.3873 0 127.667L0 383.667C0.0338743 411.946 11.2828 439.057 31.2794 459.054C51.2759 479.051 78.3873 490.299 106.667 490.333H405.333C433.613 490.299 460.724 479.051 480.721 459.054C500.717 439.057 511.966 411.946 512 383.667V127.667C511.966 99.3873 500.717 72.2759 480.721 52.2794C460.724 32.2828 433.613 21.0339 405.333 21V21ZM106.667 63.6667H405.333C418.107 63.6918 430.582 67.539 441.151 74.7132C451.72 81.8873 459.901 92.0602 464.64 103.923L301.269 267.315C289.246 279.289 272.969 286.013 256 286.013C239.031 286.013 222.754 279.289 210.731 267.315L47.36 103.923C52.0992 92.0602 60.2798 81.8873 70.849 74.7132C81.4183 67.539 93.8926 63.6918 106.667 63.6667V63.6667ZM405.333 447.667H106.667C89.6928 447.667 73.4142 440.924 61.4118 428.922C49.4095 416.919 42.6667 400.641 42.6667 383.667V159.667L180.565 297.48C200.589 317.453 227.717 328.67 256 328.67C284.283 328.67 311.411 317.453 331.435 297.48L469.333 159.667V383.667C469.333 400.641 462.591 416.919 450.588 428.922C438.586 440.924 422.307 447.667 405.333 447.667Z" fill="#67734B"/>
</svg>
