<svg width="512" height="512" viewBox="0 0 512 512" fill="none" xmlns="http://www.w3.org/2000/svg">
<g clip-path="url(#clip0_29_21)">
<path d="M448 128H384C384 94.0523 370.514 61.495 346.51 37.4903C322.505 13.4857 289.948 0 256 0C222.052 0 189.495 13.4857 165.49 37.4903C141.486 61.495 128 94.0523 128 128H64C47.0261 128 30.7475 134.743 18.7452 146.745C6.74284 158.748 0 175.026 0 192L0 405.333C0.0338743 433.613 11.2828 460.724 31.2794 480.721C51.2759 500.717 78.3873 511.966 106.667 512H405.333C433.613 511.966 460.724 500.717 480.721 480.721C500.717 460.724 511.966 433.613 512 405.333V192C512 175.026 505.257 158.748 493.255 146.745C481.253 134.743 464.974 128 448 128ZM256 42.6667C278.632 42.6667 300.337 51.6571 316.34 67.6602C332.343 83.6633 341.333 105.368 341.333 128H170.667C170.667 105.368 179.657 83.6633 195.66 67.6602C211.663 51.6571 233.368 42.6667 256 42.6667V42.6667ZM469.333 405.333C469.333 422.307 462.591 438.586 450.588 450.588C438.586 462.591 422.307 469.333 405.333 469.333H106.667C89.6928 469.333 73.4142 462.591 61.4118 450.588C49.4095 438.586 42.6667 422.307 42.6667 405.333V192C42.6667 186.342 44.9143 180.916 48.9151 176.915C52.9158 172.914 58.342 170.667 64 170.667H128V213.333C128 218.991 130.248 224.418 134.248 228.418C138.249 232.419 143.675 234.667 149.333 234.667C154.991 234.667 160.418 232.419 164.418 228.418C168.419 224.418 170.667 218.991 170.667 213.333V170.667H341.333V213.333C341.333 218.991 343.581 224.418 347.582 228.418C351.582 232.419 357.009 234.667 362.667 234.667C368.325 234.667 373.751 232.419 377.752 228.418C381.752 224.418 384 218.991 384 213.333V170.667H448C453.658 170.667 459.084 172.914 463.085 176.915C467.086 180.916 469.333 186.342 469.333 192V405.333Z" fill="#7B977C"/>
</g>
<defs>
<clipPath id="clip0_29_21">
<rect width="512" height="512" fill="white"/>
</clipPath>
</defs>
</svg>
